G04*
G04 #@! TF.GenerationSoftware,Altium Limited,Altium Designer,20.1.11 (218)*
G04*
G04 Layer_Color=16711935*
%FSLAX23Y23*%
%MOIN*%
G70*
G04*
G04 #@! TF.SameCoordinates,61B52F32-3D36-43F7-9E25-D9CFD543C360*
G04*
G04*
G04 #@! TF.FilePolarity,Positive*
G04*
G01*
G75*
%ADD17C,0.016*%
%ADD70C,0.006*%
D17*
X708Y1000D02*
X5708Y1000D01*
X708Y1000D02*
X708Y5000D01*
X5708Y5000D01*
X5708Y1000D02*
X5708Y5000D01*
D70*
X1489Y3648D02*
X1489Y3609D01*
X1497Y3601D01*
X1513Y3601D01*
X1520Y3609D01*
X1520Y3648D01*
X1536Y3640D02*
X1544Y3648D01*
X1560Y3648D01*
X1568Y3640D01*
X1568Y3632D01*
X1560Y3625D01*
X1568Y3617D01*
X1568Y3609D01*
X1560Y3601D01*
X1544Y3601D01*
X1536Y3609D01*
X1536Y3617D01*
X1544Y3625D01*
X1536Y3632D01*
X1536Y3640D01*
X1544Y3625D02*
X1560Y3625D01*
X4273Y2685D02*
X4312Y2685D01*
X4320Y2693D01*
X4320Y2709D01*
X4312Y2716D01*
X4273Y2716D01*
X4281Y2732D02*
X4273Y2740D01*
X4273Y2756D01*
X4281Y2764D01*
X4289Y2764D01*
X4296Y2756D01*
X4296Y2748D01*
X4296Y2756D01*
X4304Y2764D01*
X4312Y2764D01*
X4320Y2756D01*
X4320Y2740D01*
X4312Y2732D01*
X3073Y2680D02*
X3112Y2680D01*
X3120Y2688D01*
X3120Y2704D01*
X3112Y2711D01*
X3073Y2711D01*
X3120Y2751D02*
X3073Y2751D01*
X3096Y2727D01*
X3096Y2759D01*
X1829Y2678D02*
X1868Y2678D01*
X1876Y2686D01*
X1876Y2702D01*
X1868Y2709D01*
X1829Y2709D01*
X1876Y2725D02*
X1876Y2741D01*
X1876Y2733D01*
X1829Y2733D01*
X1837Y2725D01*
X3073Y2080D02*
X3112Y2080D01*
X3120Y2088D01*
X3120Y2104D01*
X3112Y2111D01*
X3073Y2111D01*
X3120Y2159D02*
X3120Y2127D01*
X3089Y2159D01*
X3081Y2159D01*
X3073Y2151D01*
X3073Y2135D01*
X3081Y2127D01*
M02*
