G04*
G04 #@! TF.GenerationSoftware,Altium Limited,Altium Designer,20.1.11 (218)*
G04*
G04 Layer_Color=16711935*
%FSLAX23Y23*%
%MOIN*%
G70*
G04*
G04 #@! TF.SameCoordinates,F8B90733-5A71-46B0-BA36-7A68656922B7*
G04*
G04*
G04 #@! TF.FilePolarity,Negative*
G04*
G01*
G75*
%ADD21R,0.208X0.103*%
%ADD23C,0.008*%
G04:AMPARAMS|DCode=24|XSize=83mil|YSize=83mil|CornerRadius=13mil|HoleSize=0mil|Usage=FLASHONLY|Rotation=270.000|XOffset=0mil|YOffset=0mil|HoleType=Round|Shape=RoundedRectangle|*
%AMROUNDEDRECTD24*
21,1,0.083,0.056,0,0,270.0*
21,1,0.056,0.083,0,0,270.0*
1,1,0.027,-0.028,-0.028*
1,1,0.027,-0.028,0.028*
1,1,0.027,0.028,0.028*
1,1,0.027,0.028,-0.028*
%
%ADD24ROUNDEDRECTD24*%
%ADD25C,0.083*%
G04:AMPARAMS|DCode=26|XSize=83mil|YSize=83mil|CornerRadius=13mil|HoleSize=0mil|Usage=FLASHONLY|Rotation=180.000|XOffset=0mil|YOffset=0mil|HoleType=Round|Shape=RoundedRectangle|*
%AMROUNDEDRECTD26*
21,1,0.083,0.056,0,0,180.0*
21,1,0.056,0.083,0,0,180.0*
1,1,0.027,-0.028,0.028*
1,1,0.027,0.028,0.028*
1,1,0.027,0.028,-0.028*
1,1,0.027,-0.028,-0.028*
%
%ADD26ROUNDEDRECTD26*%
%ADD27C,0.088*%
%ADD28C,0.067*%
%ADD29R,0.067X0.067*%
%ADD30R,0.108X0.063*%
%ADD31O,0.108X0.063*%
%ADD32C,0.138*%
%ADD33C,0.078*%
%ADD34C,0.058*%
%ADD35R,0.087X0.063*%
%ADD36O,0.087X0.063*%
%ADD37C,0.258*%
%ADD38C,0.093*%
%ADD39C,0.071*%
%ADD40R,0.071X0.071*%
G04:AMPARAMS|DCode=41|XSize=83mil|YSize=83mil|CornerRadius=13mil|HoleSize=0mil|Usage=FLASHONLY|Rotation=20.000|XOffset=0mil|YOffset=0mil|HoleType=Round|Shape=RoundedRectangle|*
%AMROUNDEDRECTD41*
21,1,0.083,0.056,0,0,20.0*
21,1,0.056,0.083,0,0,20.0*
1,1,0.027,0.036,-0.017*
1,1,0.027,-0.017,-0.036*
1,1,0.027,-0.036,0.017*
1,1,0.027,0.017,0.036*
%
%ADD41ROUNDEDRECTD41*%
%ADD42R,0.078X0.078*%
%ADD43R,0.067X0.067*%
%ADD44C,0.073*%
D21*
X5589Y2382D02*
D03*
X5589Y2036D02*
D03*
D23*
X3137Y3435D02*
D03*
X3137Y4617D02*
D03*
D24*
X1880Y4036D02*
D03*
X4723Y2309D02*
D03*
X4854Y2308D02*
D03*
X5172Y4700D02*
D03*
X5171Y3975D02*
D03*
X1361Y2705D02*
D03*
X5170Y4367D02*
D03*
X5170Y3462D02*
D03*
X3810Y2692D02*
D03*
X2595Y2697D02*
D03*
X2550Y2099D02*
D03*
X1021Y3932D02*
D03*
X1700Y2298D02*
D03*
X1900Y2298D02*
D03*
X2100Y2298D02*
D03*
X4000Y2398D02*
D03*
X4200Y2398D02*
D03*
X4400Y2398D02*
D03*
D25*
X1880Y3839D02*
D03*
X1521Y4089D02*
D03*
X1207Y2508D02*
D03*
X4723Y2505D02*
D03*
X4854Y2504D02*
D03*
X5172Y4896D02*
D03*
X5171Y3779D02*
D03*
X1361Y2901D02*
D03*
X4797Y3474D02*
D03*
X4940Y3411D02*
D03*
X5170Y4563D02*
D03*
X4960Y4129D02*
D03*
X4806Y4193D02*
D03*
X5170Y3658D02*
D03*
X5263Y3120D02*
D03*
X3810Y2888D02*
D03*
X2595Y2893D02*
D03*
X2550Y2295D02*
D03*
X1021Y4128D02*
D03*
X3002Y2500D02*
D03*
X1558Y3051D02*
D03*
X1700Y2102D02*
D03*
X1900Y2102D02*
D03*
X2100Y2102D02*
D03*
X4648Y3150D02*
D03*
X4000Y2202D02*
D03*
X4200Y2202D02*
D03*
X4400Y2202D02*
D03*
D26*
X1718Y4089D02*
D03*
X1010Y2508D02*
D03*
X5067Y3120D02*
D03*
X3198Y2500D02*
D03*
X1754Y3051D02*
D03*
X4452Y3150D02*
D03*
D27*
X1880Y3333D02*
D03*
X1880Y3733D02*
D03*
X811Y2775D02*
D03*
X1211Y2775D02*
D03*
X1208Y2632D02*
D03*
X808Y2632D02*
D03*
X5346Y2018D02*
D03*
X4968Y2018D02*
D03*
X5574Y2676D02*
D03*
X5574Y3054D02*
D03*
X1439Y4463D02*
D03*
X1439Y4841D02*
D03*
X1719Y4213D02*
D03*
X1719Y4613D02*
D03*
X1150Y3840D02*
D03*
X1150Y4240D02*
D03*
X884Y4241D02*
D03*
X884Y3841D02*
D03*
X3660Y2210D02*
D03*
X3660Y2610D02*
D03*
X3150Y1850D02*
D03*
X2750Y1850D02*
D03*
X2300Y1500D02*
D03*
X2700Y1500D02*
D03*
X1700Y1500D02*
D03*
X1300Y1500D02*
D03*
X3600Y1500D02*
D03*
X4000Y1500D02*
D03*
X4600Y1500D02*
D03*
X5000Y1500D02*
D03*
D28*
X1754Y3271D02*
D03*
X1754Y3371D02*
D03*
X1754Y3471D02*
D03*
X1754Y3571D02*
D03*
X1754Y3671D02*
D03*
X1754Y3771D02*
D03*
X1754Y3871D02*
D03*
X1754Y3971D02*
D03*
X1454Y3271D02*
D03*
X1454Y3371D02*
D03*
X1454Y3471D02*
D03*
X1454Y3571D02*
D03*
X1454Y3671D02*
D03*
X1454Y3771D02*
D03*
X1454Y3871D02*
D03*
X910Y3017D02*
D03*
X910Y3115D02*
D03*
X910Y3214D02*
D03*
X910Y3411D02*
D03*
X910Y3509D02*
D03*
X1008Y3017D02*
D03*
X1008Y3115D02*
D03*
X1008Y3214D02*
D03*
X1008Y3411D02*
D03*
X1008Y3509D02*
D03*
X5388Y3177D02*
D03*
X5388Y3077D02*
D03*
X4050Y2650D02*
D03*
X4150Y2650D02*
D03*
X4250Y2650D02*
D03*
X4350Y2650D02*
D03*
X4450Y2650D02*
D03*
X4550Y2650D02*
D03*
X4650Y2650D02*
D03*
X3950Y2950D02*
D03*
X4050Y2950D02*
D03*
X4150Y2950D02*
D03*
X4250Y2950D02*
D03*
X4350Y2950D02*
D03*
X4450Y2950D02*
D03*
X4550Y2950D02*
D03*
X4650Y2950D02*
D03*
X3400Y2950D02*
D03*
X3300Y2950D02*
D03*
X3200Y2950D02*
D03*
X3100Y2950D02*
D03*
X3000Y2950D02*
D03*
X2900Y2950D02*
D03*
X2800Y2950D02*
D03*
X3400Y2650D02*
D03*
X3300Y2650D02*
D03*
X3200Y2650D02*
D03*
X3100Y2650D02*
D03*
X3000Y2650D02*
D03*
X2900Y2650D02*
D03*
X1606Y2643D02*
D03*
X1706Y2643D02*
D03*
X1806Y2643D02*
D03*
X1906Y2643D02*
D03*
X2006Y2643D02*
D03*
X2106Y2643D02*
D03*
X2206Y2643D02*
D03*
X1506Y2943D02*
D03*
X1606Y2943D02*
D03*
X1706Y2943D02*
D03*
X1806Y2943D02*
D03*
X1906Y2943D02*
D03*
X2006Y2943D02*
D03*
X2106Y2943D02*
D03*
X2206Y2943D02*
D03*
X3400Y2350D02*
D03*
X3300Y2350D02*
D03*
X3200Y2350D02*
D03*
X3100Y2350D02*
D03*
X3000Y2350D02*
D03*
X2900Y2350D02*
D03*
X2800Y2350D02*
D03*
X3400Y2050D02*
D03*
X3300Y2050D02*
D03*
X3200Y2050D02*
D03*
X3100Y2050D02*
D03*
X3000Y2050D02*
D03*
X2900Y2050D02*
D03*
D29*
X1454Y3971D02*
D03*
D30*
X5012Y2956D02*
D03*
D31*
X5012Y2856D02*
D03*
X5012Y2756D02*
D03*
X5012Y2656D02*
D03*
X5012Y2556D02*
D03*
X5012Y2456D02*
D03*
X5012Y2356D02*
D03*
X5012Y2256D02*
D03*
X5312Y2956D02*
D03*
X5312Y2856D02*
D03*
X5312Y2756D02*
D03*
X5312Y2656D02*
D03*
X5312Y2556D02*
D03*
X5312Y2456D02*
D03*
X5312Y2356D02*
D03*
X5312Y2256D02*
D03*
D32*
X890Y2043D02*
D03*
X890Y2342D02*
D03*
X5528Y1786D02*
D03*
X5528Y1487D02*
D03*
D33*
X1197Y2192D02*
D03*
X5221Y1637D02*
D03*
X1719Y4841D02*
D03*
X3425Y1745D02*
D03*
X5067Y1680D02*
D03*
X1397Y2088D02*
D03*
X1590Y1870D02*
D03*
X1688Y1870D02*
D03*
X1787Y1870D02*
D03*
X1984Y1870D02*
D03*
X2082Y1870D02*
D03*
X1590Y1772D02*
D03*
X1688Y1772D02*
D03*
X1787Y1772D02*
D03*
X1984Y1772D02*
D03*
X2082Y1772D02*
D03*
X3890Y1870D02*
D03*
X3988Y1870D02*
D03*
X4087Y1870D02*
D03*
X4284Y1870D02*
D03*
X4382Y1870D02*
D03*
X3890Y1772D02*
D03*
X3988Y1772D02*
D03*
X4087Y1772D02*
D03*
X4284Y1772D02*
D03*
X4382Y1772D02*
D03*
D34*
X5236Y1979D02*
D03*
X5157Y1979D02*
D03*
X5078Y1979D02*
D03*
X5236Y2057D02*
D03*
X5157Y2057D02*
D03*
X5078Y2057D02*
D03*
X5535Y2786D02*
D03*
X5535Y2865D02*
D03*
X5535Y2944D02*
D03*
X5613Y2786D02*
D03*
X5613Y2865D02*
D03*
X5613Y2944D02*
D03*
X1400Y4573D02*
D03*
X1400Y4652D02*
D03*
X1400Y4731D02*
D03*
X1478Y4573D02*
D03*
X1478Y4652D02*
D03*
X1478Y4731D02*
D03*
X4451Y1599D02*
D03*
X4183Y1642D02*
D03*
X3985Y1616D02*
D03*
X1795Y1635D02*
D03*
X2080Y1600D02*
D03*
D35*
X4969Y3633D02*
D03*
X4980Y4351D02*
D03*
D36*
X4969Y3700D02*
D03*
X4969Y3767D02*
D03*
X4969Y3834D02*
D03*
X4969Y3901D02*
D03*
X4980Y4619D02*
D03*
X4980Y4552D02*
D03*
X4980Y4485D02*
D03*
X4980Y4418D02*
D03*
D37*
X4411Y3767D02*
D03*
X4422Y4484D02*
D03*
D38*
X4403Y1145D02*
D03*
X4600Y1145D02*
D03*
X4797Y1145D02*
D03*
X5500Y4747D02*
D03*
X5500Y4550D02*
D03*
X5500Y4353D02*
D03*
X5500Y3797D02*
D03*
X5500Y3600D02*
D03*
X5500Y3403D02*
D03*
X2497Y1150D02*
D03*
X2300Y1150D02*
D03*
X2103Y1150D02*
D03*
X1597Y1150D02*
D03*
X1400Y1150D02*
D03*
X1203Y1150D02*
D03*
X3897Y1150D02*
D03*
X3700Y1150D02*
D03*
X3503Y1150D02*
D03*
D39*
X1472Y4278D02*
D03*
X1372Y4278D02*
D03*
X3165Y1575D02*
D03*
X3065Y1575D02*
D03*
D40*
X1719Y4741D02*
D03*
D41*
X4613Y3406D02*
D03*
X4756Y3343D02*
D03*
X4776Y4061D02*
D03*
X4622Y4125D02*
D03*
D42*
X3425Y1845D02*
D03*
X5067Y1780D02*
D03*
X1397Y2188D02*
D03*
D43*
X3950Y2650D02*
D03*
X2800Y2650D02*
D03*
X1506Y2643D02*
D03*
X2800Y2050D02*
D03*
D44*
X900Y4746D02*
D03*
X1097Y4746D02*
D03*
X1097Y4549D02*
D03*
X900Y4549D02*
D03*
M02*
