G04*
G04 #@! TF.GenerationSoftware,Altium Limited,Altium Designer,20.1.11 (218)*
G04*
G04 Layer_Physical_Order=2*
G04 Layer_Color=16711680*
%FSLAX23Y23*%
%MOIN*%
G70*
G04*
G04 #@! TF.SameCoordinates,F8B90733-5A71-46B0-BA36-7A68656922B7*
G04*
G04*
G04 #@! TF.FilePolarity,Positive*
G04*
G01*
G75*
%ADD19R,0.200X0.095*%
%ADD45C,0.020*%
%ADD46C,0.050*%
%ADD47C,0.025*%
%ADD48C,0.012*%
G04:AMPARAMS|DCode=49|XSize=75mil|YSize=75mil|CornerRadius=9mil|HoleSize=0mil|Usage=FLASHONLY|Rotation=270.000|XOffset=0mil|YOffset=0mil|HoleType=Round|Shape=RoundedRectangle|*
%AMROUNDEDRECTD49*
21,1,0.075,0.056,0,0,270.0*
21,1,0.056,0.075,0,0,270.0*
1,1,0.019,-0.028,-0.028*
1,1,0.019,-0.028,0.028*
1,1,0.019,0.028,0.028*
1,1,0.019,0.028,-0.028*
%
%ADD49ROUNDEDRECTD49*%
%ADD50C,0.075*%
G04:AMPARAMS|DCode=51|XSize=75mil|YSize=75mil|CornerRadius=9mil|HoleSize=0mil|Usage=FLASHONLY|Rotation=180.000|XOffset=0mil|YOffset=0mil|HoleType=Round|Shape=RoundedRectangle|*
%AMROUNDEDRECTD51*
21,1,0.075,0.056,0,0,180.0*
21,1,0.056,0.075,0,0,180.0*
1,1,0.019,-0.028,0.028*
1,1,0.019,0.028,0.028*
1,1,0.019,0.028,-0.028*
1,1,0.019,-0.028,-0.028*
%
%ADD51ROUNDEDRECTD51*%
%ADD52C,0.080*%
%ADD53C,0.059*%
%ADD54R,0.059X0.059*%
%ADD55R,0.100X0.055*%
%ADD56O,0.100X0.055*%
%ADD57C,0.130*%
%ADD58C,0.070*%
%ADD59C,0.050*%
%ADD60R,0.079X0.055*%
%ADD61O,0.079X0.055*%
%ADD62C,0.250*%
%ADD63C,0.085*%
%ADD64C,0.063*%
%ADD65R,0.063X0.063*%
G04:AMPARAMS|DCode=66|XSize=75mil|YSize=75mil|CornerRadius=9mil|HoleSize=0mil|Usage=FLASHONLY|Rotation=20.000|XOffset=0mil|YOffset=0mil|HoleType=Round|Shape=RoundedRectangle|*
%AMROUNDEDRECTD66*
21,1,0.075,0.056,0,0,20.0*
21,1,0.056,0.075,0,0,20.0*
1,1,0.019,0.036,-0.017*
1,1,0.019,-0.017,-0.036*
1,1,0.019,-0.036,0.017*
1,1,0.019,0.017,0.036*
%
%ADD66ROUNDEDRECTD66*%
%ADD67R,0.070X0.070*%
%ADD68R,0.059X0.059*%
%ADD69C,0.065*%
D19*
X5589Y2382D02*
D03*
X5589Y2036D02*
D03*
D45*
X4885Y2301D02*
X4885Y2401D01*
X4933Y2449D01*
X5005Y2449D02*
X5012Y2456D01*
X4933Y2449D02*
X5005Y2449D01*
X1419Y4029D02*
X1534Y4029D01*
X1653Y3910D01*
X1264Y4048D02*
X1400Y4048D01*
X1419Y4029D01*
X1510Y4076D02*
X1511Y4075D01*
X2580Y2893D02*
X2595Y2893D01*
X3680Y2590D02*
X3680Y2620D01*
X2575Y2285D02*
X2575Y2290D01*
X2575Y2285D02*
X2583Y2278D01*
X2588Y2278D01*
X2635Y2230D01*
X856Y3503D02*
X919Y3503D01*
X2500Y1630D02*
X2635Y1765D01*
X2635Y2230D01*
X2679Y1649D02*
X2679Y2377D01*
X2486Y2097D02*
X2548Y2097D01*
X2679Y1649D02*
X2837Y1491D01*
X2595Y2461D02*
X2679Y2377D01*
X2595Y2461D02*
X2595Y2697D01*
X2399Y2184D02*
X2399Y2632D01*
X2389Y2642D02*
X2399Y2632D01*
X2399Y2184D02*
X2486Y2097D01*
X910Y3014D02*
X910Y3017D01*
X910Y3014D02*
X917Y3007D01*
X910Y3070D02*
X910Y3115D01*
X910Y3017D02*
X910Y3070D01*
X855Y3345D02*
X1079Y3345D01*
X843Y3357D02*
X855Y3345D01*
X843Y3357D02*
X843Y3490D01*
X856Y3503D01*
X1079Y3345D02*
X1150Y3416D01*
X1150Y3840D01*
X959Y4125D02*
X1040Y4125D01*
X1042Y4127D01*
X884Y3841D02*
X884Y4050D01*
X959Y4125D01*
X1021Y4128D02*
X1030Y4128D01*
X1131Y4230D01*
X1137Y4230D01*
X1008Y3509D02*
X1008Y3717D01*
X1008Y3411D02*
X1008Y3509D01*
X897Y3828D02*
X1008Y3717D01*
X897Y3828D02*
X897Y3829D01*
X1481Y2705D02*
X1497Y2689D01*
X1497Y2653D02*
X1502Y2648D01*
X1361Y2705D02*
X1481Y2705D01*
X1497Y2653D02*
X1497Y2689D01*
X2558Y2878D02*
X2565Y2878D01*
X2580Y2893D01*
X2547Y2867D02*
X2558Y2878D01*
X2082Y2867D02*
X2547Y2867D01*
X2006Y2943D02*
X2082Y2867D01*
X3700Y1150D02*
X3989Y1439D01*
X3989Y1488D01*
X3998Y1497D01*
X5115Y4377D02*
X5127Y4365D01*
X5131Y4365D01*
X5133Y4363D01*
X5115Y4377D02*
X5115Y4454D01*
X4980Y4485D02*
X5084Y4485D01*
X5115Y4454D01*
X3680Y2590D02*
X3740Y2530D01*
X3740Y1387D02*
X3740Y2530D01*
X3503Y1150D02*
X3740Y1387D01*
X3335Y1745D02*
X3425Y1745D01*
X3170Y1580D02*
X3335Y1745D01*
X2103Y1150D02*
X2500Y1547D01*
X2100Y1147D02*
X2103Y1150D01*
X2500Y1547D02*
X2500Y1630D01*
X3500Y1060D02*
X3960Y1060D01*
X2100Y1060D02*
X3500Y1060D01*
X3500Y1147D02*
X3503Y1150D01*
X3500Y1060D02*
X3500Y1147D01*
X1293Y1060D02*
X2100Y1060D01*
X2100Y1147D01*
X1209Y1129D02*
X1224Y1129D01*
X1293Y1060D01*
X4045Y1145D02*
X4403Y1145D01*
X3960Y1060D02*
X4045Y1145D01*
X4585Y1160D02*
X4600Y1175D01*
X4580Y1160D02*
X4585Y1160D01*
X4600Y1175D02*
X4600Y1260D01*
X4660Y1320D01*
X4820Y1320D02*
X5000Y1500D01*
X4660Y1320D02*
X4820Y1320D01*
X2300Y1160D02*
X2300Y1200D01*
X2420Y1320D01*
X2520Y1320D02*
X2700Y1500D01*
X2420Y1320D02*
X2520Y1320D01*
X1400Y1150D02*
X1400Y1240D01*
X1400Y1140D02*
X1400Y1150D01*
X1300Y1340D02*
X1300Y1500D01*
X1300Y1340D02*
X1400Y1240D01*
X3660Y2738D02*
X3810Y2888D01*
X3660Y2610D02*
X3660Y2738D01*
X3400Y2050D02*
X3452Y2102D01*
X3400Y2650D02*
X3452Y2598D01*
X3452Y2102D02*
X3452Y2598D01*
X3081Y1491D02*
X3165Y1575D01*
X2837Y1491D02*
X3081Y1491D01*
X3950Y2950D02*
X4150Y2750D01*
X4150Y2650D02*
X4150Y2750D01*
X3425Y1745D02*
X3470Y1745D01*
X3482Y1757D01*
X3482Y1968D01*
X3400Y2050D02*
X3482Y1968D01*
D46*
X4723Y2309D02*
X4865Y2309D01*
X2232Y4128D02*
X2232Y4669D01*
X2289Y4071D02*
X4448Y4071D01*
X2232Y4128D02*
X2289Y4071D01*
X5516Y1796D02*
X5589Y1869D01*
X5503Y1487D02*
X5526Y1465D01*
X4750Y3328D02*
X4761Y3328D01*
X4718Y2303D02*
X4729Y2303D01*
X4439Y4467D02*
X4439Y4774D01*
X890Y2329D02*
X914Y2353D01*
X887Y2026D02*
X926Y2026D01*
X881Y2020D02*
X887Y2026D01*
X926Y2026D02*
X998Y1953D01*
X1262Y1953D01*
X1397Y2088D01*
X890Y2043D02*
X890Y2329D01*
X4943Y3402D02*
X4943Y3420D01*
X4448Y4071D02*
X4728Y3791D01*
X1961Y4940D02*
X2232Y4669D01*
X1624Y4940D02*
X1961Y4940D01*
X5589Y2036D02*
X5589Y2382D01*
X5589Y2010D02*
X5589Y2036D01*
X5589Y1869D02*
X5589Y2010D01*
X5590Y2009D01*
X4797Y3474D02*
X4797Y3474D01*
X4728Y3543D02*
X4797Y3474D01*
X4728Y3543D02*
X4728Y3791D01*
X4613Y3406D02*
X4613Y3565D01*
X4430Y3748D02*
X4613Y3565D01*
X4425Y3748D02*
X4430Y3748D01*
X4439Y4774D02*
X4561Y4896D01*
X5172Y4896D01*
X5350Y4896D01*
X5494Y4753D01*
X5497Y4753D01*
X4979Y4484D02*
X4980Y4485D01*
X4470Y4484D02*
X4979Y4484D01*
X4455Y4499D02*
X4470Y4484D01*
X4460Y4287D02*
X4622Y4125D01*
X4460Y4287D02*
X4460Y4453D01*
X4445Y4468D02*
X4460Y4453D01*
X4682Y4061D02*
X4776Y4061D01*
X4629Y4114D02*
X4682Y4061D01*
X4958Y3120D02*
X5067Y3120D01*
X4766Y3312D02*
X4958Y3120D01*
X4766Y3312D02*
X4766Y3323D01*
X4761Y3328D02*
X4766Y3323D01*
X4613Y3406D02*
X4623Y3406D01*
X4675Y3354D01*
X4746Y3354D01*
X4747Y3353D01*
X5067Y3120D02*
X5067Y3358D01*
X5161Y3453D01*
X5164Y3453D01*
X4881Y3463D02*
X4934Y3411D01*
X4876Y3469D02*
X4881Y3463D01*
X4881Y4049D01*
X4960Y4129D02*
X4960Y4129D01*
X4881Y4049D02*
X4960Y4129D01*
X4969Y3446D02*
X4969Y3633D01*
X4943Y3420D02*
X4969Y3446D01*
X4934Y3411D02*
X4940Y3411D01*
X4807Y3469D02*
X4876Y3469D01*
X4806Y3470D02*
X4807Y3469D01*
X4960Y4146D02*
X4960Y4332D01*
X4913Y4193D02*
X4960Y4146D01*
X4806Y4193D02*
X4913Y4193D01*
X4968Y4351D02*
X4980Y4351D01*
X4966Y4349D02*
X4968Y4351D01*
X4966Y4337D02*
X4966Y4349D01*
X4960Y4332D02*
X4966Y4337D01*
X4919Y2255D02*
X4987Y2255D01*
X4865Y2309D02*
X4919Y2255D01*
X4780Y1814D02*
X4780Y2270D01*
X4729Y2303D02*
X4762Y2270D01*
X4780Y2270D01*
X4914Y1680D02*
X5067Y1680D01*
X4780Y1814D02*
X4914Y1680D01*
X5176Y1487D02*
X5503Y1487D01*
X5071Y1593D02*
X5176Y1487D01*
X5067Y1680D02*
X5071Y1676D01*
X5071Y1593D02*
X5071Y1676D01*
X5166Y2756D02*
X5312Y2756D01*
X5161Y2761D02*
X5166Y2756D01*
X5012Y2656D02*
X5150Y2656D01*
X5151Y2655D01*
X5078Y2057D02*
X5078Y2132D01*
X5078Y1979D02*
X5078Y2057D01*
X5160Y2214D02*
X5160Y2826D01*
X5306Y2855D02*
X5306Y2855D01*
X5189Y2855D02*
X5306Y2855D01*
X5160Y2826D02*
X5189Y2855D01*
X5078Y2132D02*
X5160Y2214D01*
X5528Y1487D02*
X5528Y1786D01*
X5528Y1481D02*
X5528Y1487D01*
X5528Y1481D02*
X5529Y1480D01*
X5516Y1796D02*
X5516Y1796D01*
X5134Y1800D02*
X5157Y1823D01*
X5114Y1780D02*
X5134Y1800D01*
X5221Y1646D02*
X5222Y1646D01*
X5221Y1646D02*
X5221Y1646D01*
X5221Y1646D02*
X5221Y1725D01*
X5146Y1800D02*
X5221Y1725D01*
X5134Y1800D02*
X5146Y1800D01*
X5157Y1979D02*
X5157Y2057D01*
X5157Y1823D02*
X5157Y1979D01*
X5079Y1780D02*
X5114Y1780D01*
D47*
X1264Y4048D02*
X1264Y4589D01*
X1642Y3359D02*
X1642Y3887D01*
X1724Y3969D01*
X1754Y3371D02*
X1754Y3461D01*
X1754Y3323D02*
X1754Y3371D01*
X1754Y3271D02*
X1754Y3323D01*
X1751Y3464D02*
X1754Y3461D01*
X2675Y2475D02*
X2675Y2836D01*
X2629Y2882D02*
X2675Y2836D01*
X2675Y2475D02*
X2800Y2350D01*
X1719Y4073D02*
X1719Y4213D01*
X1475Y4275D02*
X1475Y4278D01*
X1475Y4287D01*
X1156Y3851D02*
X1166Y3841D01*
X1102Y3851D02*
X1156Y3851D01*
X2590Y2692D02*
X2590Y2698D01*
X2206Y2643D02*
X2541Y2643D01*
X1754Y3971D02*
X1763Y3971D01*
X1719Y4073D02*
X1721Y4071D01*
X1264Y4589D02*
X1327Y4652D01*
X1475Y4278D02*
X1559Y4278D01*
X1472Y4278D02*
X1475Y4278D01*
X1740Y4841D02*
X1744Y4845D01*
X1822Y4845D01*
X1864Y4362D02*
X1864Y4803D01*
X1822Y4845D02*
X1864Y4803D01*
X1817Y4315D02*
X1864Y4362D01*
X1596Y4315D02*
X1817Y4315D01*
X1559Y4278D02*
X1596Y4315D01*
X1521Y4089D02*
X1521Y4229D01*
X1475Y4275D02*
X1521Y4229D01*
X1021Y3932D02*
X1102Y3851D01*
X931Y2335D02*
X938Y2342D01*
X1320Y2342D01*
X1361Y2383D02*
X1361Y2705D01*
X1320Y2342D02*
X1361Y2383D01*
X2541Y2643D02*
X2590Y2692D01*
X1723Y3971D02*
X1754Y3971D01*
X1718Y3976D02*
X1718Y4089D01*
X1718Y3976D02*
X1723Y3971D01*
X1719Y4213D02*
X1719Y4213D01*
X1327Y4652D02*
X1400Y4652D01*
X1593Y4920D02*
X1615Y4942D01*
X1525Y4657D02*
X1593Y4725D01*
X1593Y4920D01*
X1478Y4652D02*
X1483Y4657D01*
X1525Y4657D01*
X1478Y4573D02*
X1518Y4573D01*
X1400Y4573D02*
X1478Y4573D01*
X1683Y4738D02*
X1711Y4738D01*
X1518Y4573D02*
X1683Y4738D01*
X5659Y3149D02*
X5659Y4194D01*
X5659Y3133D02*
X5659Y3149D01*
X5263Y2990D02*
X5263Y3120D01*
X5263Y2990D02*
X5289Y2964D01*
X5300Y2964D01*
X4980Y4351D02*
X4980Y4418D01*
X4969Y3642D02*
X4969Y3700D01*
X4968Y3641D02*
X4969Y3642D01*
X5170Y3658D02*
X5420Y3408D01*
X5163Y3198D02*
X5393Y3428D01*
X5163Y2930D02*
X5163Y3198D01*
X5012Y2856D02*
X5089Y2856D01*
X5163Y2930D01*
X4908Y2556D02*
X5012Y2556D01*
X4872Y2519D02*
X4908Y2556D01*
X4858Y2519D02*
X4872Y2519D01*
X4852Y2525D02*
X4858Y2519D01*
X4723Y2520D02*
X4732Y2511D01*
X4723Y2520D02*
X4723Y2660D01*
X4819Y2756D02*
X5012Y2756D01*
X4723Y2660D02*
X4819Y2756D01*
X5153Y3668D02*
X5158Y3663D01*
X5103Y3668D02*
X5153Y3668D01*
X5086Y3685D02*
X5103Y3668D01*
X5086Y3685D02*
X5086Y3795D01*
X5047Y3834D02*
X5086Y3795D01*
X4969Y3834D02*
X5047Y3834D01*
X5420Y3408D02*
X5487Y3408D01*
X5495Y3400D01*
X5495Y2563D02*
X5622Y2563D01*
X5404Y2654D02*
X5495Y2563D01*
X5674Y2615D02*
X5674Y3118D01*
X5622Y2563D02*
X5674Y2615D01*
X5659Y3133D02*
X5674Y3118D01*
X5489Y3379D02*
X5489Y3379D01*
X5500Y4353D02*
X5659Y4194D01*
X5312Y2656D02*
X5404Y2656D01*
X5177Y3780D02*
X5453Y3780D01*
X5472Y3799D01*
X5165Y3776D02*
X5166Y3777D01*
X5168Y3972D02*
X5174Y3978D01*
X5134Y3972D02*
X5168Y3972D01*
X5063Y3901D02*
X5134Y3972D01*
X4969Y3901D02*
X5063Y3901D01*
X5167Y4557D02*
X5173Y4563D01*
X5290Y4563D01*
X5170Y4563D02*
X5173Y4563D01*
X5290Y4563D02*
X5500Y4353D01*
X5129Y4557D02*
X5167Y4557D01*
X4980Y4552D02*
X5124Y4552D01*
X5129Y4557D01*
X5070Y4697D02*
X5192Y4697D01*
X5172Y4696D02*
X5354Y4696D01*
X5500Y4550D01*
X4980Y4619D02*
X4992Y4619D01*
X5070Y4697D01*
D48*
X1754Y3323D02*
X1871Y3323D01*
X1678Y3323D02*
X1754Y3323D01*
X2725Y2623D02*
X2948Y2400D01*
X2725Y2623D02*
X2725Y2965D01*
X1504Y2943D02*
X1506Y2941D01*
X1380Y3134D02*
X2733Y3134D01*
X2850Y2856D02*
X2850Y3017D01*
X2733Y3134D02*
X2850Y3017D01*
X3098Y2667D02*
X3098Y2725D01*
X3117Y2744D01*
X3187Y2744D01*
X3200Y2731D01*
X3200Y2650D02*
X3200Y2731D01*
X5236Y2054D02*
X5244Y2062D01*
X5236Y1979D02*
X5236Y2054D01*
X5329Y3042D02*
X5329Y3262D01*
X5283Y3308D02*
X5329Y3262D01*
X5329Y3042D02*
X5385Y2986D01*
X5385Y2894D02*
X5385Y2986D01*
X5534Y2787D02*
X5535Y2786D01*
X5492Y2787D02*
X5534Y2787D01*
X5385Y2894D02*
X5492Y2787D01*
X782Y3307D02*
X782Y4431D01*
X782Y2773D02*
X782Y3307D01*
X1618Y3240D02*
X1636Y3222D01*
X1618Y3240D02*
X1618Y3240D01*
X1636Y3222D02*
X3363Y3222D01*
X1591Y3267D02*
X1618Y3240D01*
X1602Y3196D02*
X2932Y3196D01*
X2934Y3194D01*
X1567Y3231D02*
X1567Y3288D01*
X1567Y3231D02*
X1602Y3196D01*
X1343Y3323D02*
X1532Y3323D01*
X1567Y3288D01*
X1135Y3115D02*
X1343Y3323D01*
X1008Y3115D02*
X1135Y3115D01*
X1591Y3267D02*
X1591Y3381D01*
X1474Y3424D02*
X1548Y3424D01*
X1591Y3381D01*
X1124Y3164D02*
X1383Y3423D01*
X1474Y3423D01*
X1474Y3424D01*
X970Y3164D02*
X1124Y3164D01*
X1272Y3393D02*
X1272Y3756D01*
X1008Y3214D02*
X1093Y3214D01*
X1272Y3393D01*
X1151Y3068D02*
X1354Y3271D01*
X1454Y3271D01*
X912Y3068D02*
X1151Y3068D01*
X1181Y2868D02*
X1421Y3109D01*
X1197Y3017D02*
X1348Y3168D01*
X1008Y3017D02*
X1197Y3017D01*
X1119Y2976D02*
X1222Y2976D01*
X1348Y3168D02*
X2891Y3168D01*
X2948Y2861D02*
X2948Y2970D01*
X1421Y3109D02*
X1870Y3109D01*
X1222Y2976D02*
X1380Y3134D01*
X2948Y2965D02*
X2948Y3111D01*
X1123Y2868D02*
X1181Y2868D01*
X910Y3070D02*
X912Y3068D01*
X909Y3071D02*
X910Y3070D01*
X2891Y3168D02*
X2948Y3111D01*
X3358Y3220D02*
X3400Y3178D01*
X782Y2773D02*
X815Y2740D01*
X1272Y3756D02*
X1387Y3871D01*
X885Y2850D02*
X993Y2850D01*
X1119Y2976D01*
X958Y3177D02*
X970Y3164D01*
X958Y3177D02*
X958Y3288D01*
X1719Y4613D02*
X1719Y4616D01*
X1719Y4470D02*
X1719Y4613D01*
X1613Y4364D02*
X1613Y4364D01*
X1719Y4616D02*
X1732Y4629D01*
X1613Y4364D02*
X1719Y4470D01*
X1419Y4364D02*
X1613Y4364D01*
X1372Y4278D02*
X1382Y4288D01*
X1382Y4327D01*
X1419Y4364D01*
X2106Y2943D02*
X2106Y3001D01*
X1962Y3008D02*
X2099Y3008D01*
X2106Y3001D01*
X1955Y3001D02*
X1962Y3008D01*
X1955Y2886D02*
X1955Y3001D01*
X1884Y3036D02*
X2155Y3036D01*
X1806Y2943D02*
X1806Y2956D01*
X1820Y2970D01*
X1820Y2972D01*
X1884Y3036D01*
X2155Y3036D02*
X2200Y2991D01*
X1919Y2850D02*
X1955Y2886D01*
X1685Y2850D02*
X1919Y2850D01*
X1706Y2774D02*
X1721Y2789D01*
X2006Y2796D02*
X2006Y2934D01*
X1999Y2789D02*
X2006Y2796D01*
X1721Y2789D02*
X1999Y2789D01*
X1706Y2643D02*
X1706Y2774D01*
X1608Y2643D02*
X1614Y2649D01*
X1614Y2779D01*
X1685Y2850D01*
X1455Y2454D02*
X1554Y2553D01*
X1554Y2891D02*
X1598Y2935D01*
X1554Y2553D02*
X1554Y2891D01*
X2006Y2934D02*
X2009Y2937D01*
X1598Y2935D02*
X1598Y2942D01*
X1606Y2943D02*
X1606Y2950D01*
X1605Y2951D02*
X1606Y2950D01*
X2143Y2710D02*
X2158Y2695D01*
X2158Y2356D02*
X2158Y2695D01*
X2099Y2297D02*
X2100Y2298D01*
X2099Y2287D02*
X2099Y2297D01*
X2100Y2298D02*
X2158Y2356D01*
X2019Y2710D02*
X2143Y2710D01*
X1455Y1433D02*
X1455Y2454D01*
X1744Y3041D02*
X1755Y3041D01*
X1706Y2943D02*
X1706Y3003D01*
X1744Y3041D01*
X1601Y2948D02*
X1606Y2943D01*
X1601Y2948D02*
X1601Y3008D01*
X1577Y3032D02*
X1601Y3008D01*
X1563Y3032D02*
X1577Y3032D01*
X2935Y3194D02*
X3000Y3129D01*
X1005Y2497D02*
X1005Y2750D01*
X2193Y3085D02*
X2696Y3085D01*
X1894Y3085D02*
X2193Y3085D01*
X1005Y2750D02*
X1123Y2868D01*
X1870Y3109D02*
X1894Y3085D01*
X885Y2850D02*
X885Y2854D01*
X885Y2697D02*
X885Y2850D01*
X2749Y2904D02*
X2749Y3032D01*
X2696Y3085D02*
X2749Y3032D01*
X2200Y2961D02*
X2200Y2991D01*
X2200Y2961D02*
X2204Y2957D01*
X2707Y2983D02*
X2725Y2965D01*
X2952Y2594D02*
X2952Y2701D01*
X2749Y2904D02*
X2952Y2701D01*
X2238Y2983D02*
X2707Y2983D01*
X2952Y2594D02*
X2964Y2582D01*
X3232Y2582D01*
X3300Y2650D01*
X3252Y2102D02*
X3252Y2430D01*
X3350Y2528D01*
X3350Y2710D01*
X1379Y2192D02*
X1391Y2180D01*
X1197Y2192D02*
X1379Y2192D01*
X1493Y1815D02*
X1493Y2383D01*
X1493Y1815D02*
X1536Y1772D01*
X1493Y2383D02*
X1596Y2486D01*
X1455Y1433D02*
X1551Y1337D01*
X1536Y1772D02*
X1590Y1772D01*
X1551Y1337D02*
X2137Y1337D01*
X2300Y1500D01*
X1975Y1425D02*
X1975Y1594D01*
X1960Y1410D02*
X1975Y1425D01*
X1615Y1410D02*
X1960Y1410D01*
X1580Y1445D02*
X1615Y1410D01*
X2106Y2547D02*
X2106Y2640D01*
X2068Y2509D02*
X2106Y2547D01*
X1787Y2433D02*
X1863Y2509D01*
X2068Y2509D01*
X3000Y2650D02*
X3000Y2706D01*
X2850Y2856D02*
X3000Y2706D01*
X2948Y2861D02*
X2973Y2836D01*
X3170Y2836D01*
X3200Y2866D01*
X831Y2908D02*
X885Y2854D01*
X808Y2632D02*
X821Y2632D01*
X885Y2697D01*
X2006Y2643D02*
X2006Y2697D01*
X2019Y2710D01*
X1787Y1870D02*
X1787Y2433D01*
X1207Y2775D02*
X1209Y2773D01*
X1209Y2510D02*
X1209Y2773D01*
X1207Y2508D02*
X1209Y2510D01*
X1806Y2546D02*
X1806Y2642D01*
X1746Y2486D02*
X1806Y2546D01*
X1596Y2486D02*
X1746Y2486D01*
X1694Y1876D02*
X1694Y2111D01*
X1688Y1870D02*
X1694Y1876D01*
X1692Y2113D02*
X1694Y2111D01*
X1900Y2102D02*
X1984Y2018D01*
X1897Y2105D02*
X1900Y2102D01*
X1984Y1870D02*
X1984Y2018D01*
X1897Y2105D02*
X1897Y2111D01*
X2082Y1870D02*
X2091Y1879D01*
X2091Y2072D01*
X2105Y2086D01*
X2108Y2086D01*
X789Y3303D02*
X943Y3303D01*
X785Y3307D02*
X789Y3303D01*
X943Y3303D02*
X958Y3288D01*
X3400Y2950D02*
X3400Y3178D01*
X3350Y2710D02*
X3545Y2905D01*
X3545Y3130D02*
X3655Y3240D01*
X3545Y2905D02*
X3545Y3130D01*
X3753Y3079D02*
X3921Y3079D01*
X3600Y1500D02*
X3600Y2926D01*
X3753Y3079D01*
X3002Y3126D02*
X3084Y3126D01*
X3100Y3110D01*
X3000Y2952D02*
X3000Y3129D01*
X3100Y2950D02*
X3100Y3110D01*
X2220Y2965D02*
X2238Y2983D01*
X1454Y3771D02*
X1457Y3774D01*
X1641Y3774D01*
X1871Y3323D02*
X1880Y3333D01*
X1642Y3359D02*
X1678Y3323D01*
X1754Y3771D02*
X1760Y3777D01*
X1819Y3777D01*
X1868Y3827D01*
X1868Y3827D01*
X1873Y3732D02*
X1885Y3720D01*
X1953Y3720D01*
X1985Y3752D02*
X1985Y4016D01*
X1953Y3720D02*
X1985Y3752D01*
X1880Y4036D02*
X1965Y4036D01*
X1985Y4016D01*
X1810Y3927D02*
X1857Y3927D01*
X1881Y4022D02*
X1882Y4022D01*
X1864Y4005D02*
X1881Y4022D01*
X1864Y3934D02*
X1864Y4005D01*
X1857Y3927D02*
X1864Y3934D01*
X1754Y3871D02*
X1810Y3927D01*
X1444Y3871D02*
X1445Y3872D01*
X1387Y3871D02*
X1444Y3871D01*
X850Y3218D02*
X909Y3218D01*
X831Y2908D02*
X831Y3199D01*
X850Y3218D01*
X782Y4431D02*
X900Y4549D01*
X1089Y4741D02*
X1094Y4736D01*
X999Y4705D02*
X1035Y4741D01*
X1089Y4741D01*
X884Y4241D02*
X999Y4356D01*
X999Y4705D01*
X5489Y3149D02*
X5652Y3149D01*
X5481Y3141D02*
X5489Y3149D01*
X5481Y2997D02*
X5481Y3141D01*
X5652Y3149D02*
X5658Y3155D01*
X5481Y2997D02*
X5535Y2944D01*
X5414Y2927D02*
X5414Y3038D01*
X5476Y2865D02*
X5535Y2865D01*
X5382Y3070D02*
X5382Y3088D01*
X5414Y2927D02*
X5476Y2865D01*
X5382Y3070D02*
X5414Y3038D01*
X3300Y2650D02*
X3300Y2949D01*
X3200Y2866D02*
X3200Y2944D01*
X4720Y3085D02*
X4720Y3233D01*
X4713Y3240D02*
X4720Y3233D01*
X3655Y3240D02*
X4713Y3240D01*
X4393Y1657D02*
X4451Y1599D01*
X4393Y1657D02*
X4393Y1761D01*
X4382Y1772D02*
X4393Y1761D01*
X4095Y1772D02*
X4183Y1684D01*
X4183Y1642D02*
X4183Y1684D01*
X3985Y1768D02*
X3988Y1772D01*
X3985Y1616D02*
X3985Y1768D01*
X5525Y3976D02*
X5583Y3918D01*
X5583Y3683D02*
X5583Y3918D01*
X5177Y3976D02*
X5525Y3976D01*
X5503Y3602D02*
X5503Y3603D01*
X5583Y3683D01*
X5252Y2356D02*
X5252Y2456D01*
X5252Y2256D02*
X5252Y2356D01*
X5312Y2356D01*
X5252Y2256D02*
X5312Y2256D01*
X5252Y2456D02*
X5312Y2456D01*
X4087Y1772D02*
X4095Y1772D01*
X1787Y1772D02*
X1791Y1767D01*
X1791Y1639D02*
X1791Y1767D01*
X1791Y1639D02*
X1795Y1635D01*
X1751Y1501D02*
X1905Y1655D01*
X1701Y1501D02*
X1751Y1501D01*
X1905Y1655D02*
X1905Y1752D01*
X1787Y1870D02*
X1905Y1752D01*
X1700Y1500D02*
X1701Y1501D01*
X1975Y1594D02*
X1975Y1763D01*
X1984Y1772D01*
X2074Y1594D02*
X2080Y1600D01*
X1975Y1594D02*
X2074Y1594D01*
X2081Y1771D02*
X2082Y1772D01*
X2081Y1601D02*
X2081Y1771D01*
X2080Y1600D02*
X2081Y1601D01*
X1580Y1445D02*
X1580Y1535D01*
X1688Y1643D02*
X1688Y1772D01*
X1580Y1535D02*
X1688Y1643D01*
X4284Y1772D02*
X4382Y1772D01*
X4316Y3216D02*
X4593Y3216D01*
X4648Y3150D02*
X4648Y3161D01*
X4593Y3216D02*
X4648Y3161D01*
X4050Y2950D02*
X4316Y3216D01*
X4575Y3025D02*
X4650Y2950D01*
X4250Y2950D02*
X4325Y3025D01*
X4575Y3025D01*
X4650Y2950D02*
X4650Y3015D01*
X4720Y3085D01*
X3200Y2050D02*
X3252Y2102D01*
X3988Y1870D02*
X3988Y2202D01*
X4382Y1870D02*
X4382Y2202D01*
X4250Y2627D02*
X4256Y2627D01*
X3198Y2350D02*
X3198Y2500D01*
X3000Y2350D02*
X3000Y2500D01*
X4350Y3150D02*
X4452Y3150D01*
X4150Y2950D02*
X4350Y3150D01*
X4087Y1870D02*
X4457Y1500D01*
X4600Y1500D01*
X4050Y2650D02*
X4098Y2602D01*
X4180Y2602D01*
X4200Y2622D01*
X4200Y2689D01*
X4240Y2729D01*
X4329Y2729D01*
X4550Y2950D01*
X4250Y2627D02*
X4250Y2650D01*
X4256Y2359D02*
X4256Y2627D01*
X4155Y2258D02*
X4256Y2359D01*
X3977Y2258D02*
X4155Y2258D01*
X3837Y2118D02*
X3977Y2258D01*
X3837Y1825D02*
X3837Y2118D01*
X3837Y1825D02*
X3890Y1772D01*
X2948Y2098D02*
X2948Y2400D01*
X2900Y2050D02*
X2948Y2098D01*
X2750Y1850D02*
X2750Y2200D01*
X2900Y2350D01*
X3352Y1918D02*
X3425Y1845D01*
X3352Y1918D02*
X3352Y2302D01*
X3400Y2350D01*
X3988Y2202D02*
X4000Y2202D01*
X4382Y2202D02*
X4400Y2202D01*
X3000Y2500D02*
X3002Y2500D01*
X3921Y3079D02*
X4050Y2950D01*
X3065Y1575D02*
X3065Y1765D01*
X3150Y1850D01*
X4200Y1954D02*
X4284Y1870D01*
X4200Y1954D02*
X4200Y2202D01*
X4400Y2398D02*
X4400Y2600D01*
X4450Y2650D01*
X4600Y1500D02*
X4600Y2600D01*
X4550Y2650D02*
X4600Y2600D01*
X3198Y2350D02*
X3200Y2350D01*
X3198Y2500D02*
X3198Y2500D01*
D49*
X1880Y4036D02*
D03*
X4723Y2309D02*
D03*
X4854Y2308D02*
D03*
X5172Y4700D02*
D03*
X5171Y3975D02*
D03*
X1361Y2705D02*
D03*
X5170Y4367D02*
D03*
X5170Y3462D02*
D03*
X3810Y2692D02*
D03*
X2595Y2697D02*
D03*
X2550Y2099D02*
D03*
X1021Y3932D02*
D03*
X1700Y2298D02*
D03*
X1900Y2298D02*
D03*
X2100Y2298D02*
D03*
X4000Y2398D02*
D03*
X4200Y2398D02*
D03*
X4400Y2398D02*
D03*
D50*
X1880Y3839D02*
D03*
X1521Y4089D02*
D03*
X1207Y2508D02*
D03*
X4723Y2505D02*
D03*
X4854Y2504D02*
D03*
X5172Y4896D02*
D03*
X5171Y3779D02*
D03*
X1361Y2901D02*
D03*
X4797Y3474D02*
D03*
X4940Y3411D02*
D03*
X5170Y4563D02*
D03*
X4960Y4129D02*
D03*
X4806Y4193D02*
D03*
X5170Y3658D02*
D03*
X5263Y3120D02*
D03*
X3810Y2888D02*
D03*
X2595Y2893D02*
D03*
X2550Y2295D02*
D03*
X1021Y4128D02*
D03*
X3002Y2500D02*
D03*
X1558Y3051D02*
D03*
X1700Y2102D02*
D03*
X1900Y2102D02*
D03*
X2100Y2102D02*
D03*
X4648Y3150D02*
D03*
X4000Y2202D02*
D03*
X4200Y2202D02*
D03*
X4400Y2202D02*
D03*
D51*
X1718Y4089D02*
D03*
X1010Y2508D02*
D03*
X5067Y3120D02*
D03*
X3198Y2500D02*
D03*
X1754Y3051D02*
D03*
X4452Y3150D02*
D03*
D52*
X1880Y3333D02*
D03*
X1880Y3733D02*
D03*
X811Y2775D02*
D03*
X1211Y2775D02*
D03*
X1208Y2632D02*
D03*
X808Y2632D02*
D03*
X5346Y2018D02*
D03*
X4968Y2018D02*
D03*
X5574Y2676D02*
D03*
X5574Y3054D02*
D03*
X1439Y4463D02*
D03*
X1439Y4841D02*
D03*
X1719Y4213D02*
D03*
X1719Y4613D02*
D03*
X1150Y3840D02*
D03*
X1150Y4240D02*
D03*
X884Y4241D02*
D03*
X884Y3841D02*
D03*
X3660Y2210D02*
D03*
X3660Y2610D02*
D03*
X3150Y1850D02*
D03*
X2750Y1850D02*
D03*
X2300Y1500D02*
D03*
X2700Y1500D02*
D03*
X1700Y1500D02*
D03*
X1300Y1500D02*
D03*
X3600Y1500D02*
D03*
X4000Y1500D02*
D03*
X4600Y1500D02*
D03*
X5000Y1500D02*
D03*
D53*
X1754Y3271D02*
D03*
X1754Y3371D02*
D03*
X1754Y3471D02*
D03*
X1754Y3571D02*
D03*
X1754Y3671D02*
D03*
X1754Y3771D02*
D03*
X1754Y3871D02*
D03*
X1754Y3971D02*
D03*
X1454Y3271D02*
D03*
X1454Y3371D02*
D03*
X1454Y3471D02*
D03*
X1454Y3571D02*
D03*
X1454Y3671D02*
D03*
X1454Y3771D02*
D03*
X1454Y3871D02*
D03*
X910Y3017D02*
D03*
X910Y3115D02*
D03*
X910Y3214D02*
D03*
X910Y3411D02*
D03*
X910Y3509D02*
D03*
X1008Y3017D02*
D03*
X1008Y3115D02*
D03*
X1008Y3214D02*
D03*
X1008Y3411D02*
D03*
X1008Y3509D02*
D03*
X5388Y3177D02*
D03*
X5388Y3077D02*
D03*
X4050Y2650D02*
D03*
X4150Y2650D02*
D03*
X4250Y2650D02*
D03*
X4350Y2650D02*
D03*
X4450Y2650D02*
D03*
X4550Y2650D02*
D03*
X4650Y2650D02*
D03*
X3950Y2950D02*
D03*
X4050Y2950D02*
D03*
X4150Y2950D02*
D03*
X4250Y2950D02*
D03*
X4350Y2950D02*
D03*
X4450Y2950D02*
D03*
X4550Y2950D02*
D03*
X4650Y2950D02*
D03*
X3400Y2950D02*
D03*
X3300Y2950D02*
D03*
X3200Y2950D02*
D03*
X3100Y2950D02*
D03*
X3000Y2950D02*
D03*
X2900Y2950D02*
D03*
X2800Y2950D02*
D03*
X3400Y2650D02*
D03*
X3300Y2650D02*
D03*
X3200Y2650D02*
D03*
X3100Y2650D02*
D03*
X3000Y2650D02*
D03*
X2900Y2650D02*
D03*
X1606Y2643D02*
D03*
X1706Y2643D02*
D03*
X1806Y2643D02*
D03*
X1906Y2643D02*
D03*
X2006Y2643D02*
D03*
X2106Y2643D02*
D03*
X2206Y2643D02*
D03*
X1506Y2943D02*
D03*
X1606Y2943D02*
D03*
X1706Y2943D02*
D03*
X1806Y2943D02*
D03*
X1906Y2943D02*
D03*
X2006Y2943D02*
D03*
X2106Y2943D02*
D03*
X2206Y2943D02*
D03*
X3400Y2350D02*
D03*
X3300Y2350D02*
D03*
X3200Y2350D02*
D03*
X3100Y2350D02*
D03*
X3000Y2350D02*
D03*
X2900Y2350D02*
D03*
X2800Y2350D02*
D03*
X3400Y2050D02*
D03*
X3300Y2050D02*
D03*
X3200Y2050D02*
D03*
X3100Y2050D02*
D03*
X3000Y2050D02*
D03*
X2900Y2050D02*
D03*
D54*
X1454Y3971D02*
D03*
D55*
X5012Y2956D02*
D03*
D56*
X5012Y2856D02*
D03*
X5012Y2756D02*
D03*
X5012Y2656D02*
D03*
X5012Y2556D02*
D03*
X5012Y2456D02*
D03*
X5012Y2356D02*
D03*
X5012Y2256D02*
D03*
X5312Y2956D02*
D03*
X5312Y2856D02*
D03*
X5312Y2756D02*
D03*
X5312Y2656D02*
D03*
X5312Y2556D02*
D03*
X5312Y2456D02*
D03*
X5312Y2356D02*
D03*
X5312Y2256D02*
D03*
D57*
X890Y2043D02*
D03*
X890Y2342D02*
D03*
X5528Y1786D02*
D03*
X5528Y1487D02*
D03*
D58*
X1197Y2192D02*
D03*
X5221Y1637D02*
D03*
X1719Y4841D02*
D03*
X3425Y1745D02*
D03*
X5067Y1680D02*
D03*
X1397Y2088D02*
D03*
X1590Y1870D02*
D03*
X1688Y1870D02*
D03*
X1787Y1870D02*
D03*
X1984Y1870D02*
D03*
X2082Y1870D02*
D03*
X1590Y1772D02*
D03*
X1688Y1772D02*
D03*
X1787Y1772D02*
D03*
X1984Y1772D02*
D03*
X2082Y1772D02*
D03*
X3890Y1870D02*
D03*
X3988Y1870D02*
D03*
X4087Y1870D02*
D03*
X4284Y1870D02*
D03*
X4382Y1870D02*
D03*
X3890Y1772D02*
D03*
X3988Y1772D02*
D03*
X4087Y1772D02*
D03*
X4284Y1772D02*
D03*
X4382Y1772D02*
D03*
D59*
X5236Y1979D02*
D03*
X5157Y1979D02*
D03*
X5078Y1979D02*
D03*
X5236Y2057D02*
D03*
X5157Y2057D02*
D03*
X5078Y2057D02*
D03*
X5535Y2786D02*
D03*
X5535Y2865D02*
D03*
X5535Y2944D02*
D03*
X5613Y2786D02*
D03*
X5613Y2865D02*
D03*
X5613Y2944D02*
D03*
X1400Y4573D02*
D03*
X1400Y4652D02*
D03*
X1400Y4731D02*
D03*
X1478Y4573D02*
D03*
X1478Y4652D02*
D03*
X1478Y4731D02*
D03*
X4451Y1599D02*
D03*
X4183Y1642D02*
D03*
X3985Y1616D02*
D03*
X1795Y1635D02*
D03*
X2080Y1600D02*
D03*
D60*
X4969Y3633D02*
D03*
X4980Y4351D02*
D03*
D61*
X4969Y3700D02*
D03*
X4969Y3767D02*
D03*
X4969Y3834D02*
D03*
X4969Y3901D02*
D03*
X4980Y4619D02*
D03*
X4980Y4552D02*
D03*
X4980Y4485D02*
D03*
X4980Y4418D02*
D03*
D62*
X4411Y3767D02*
D03*
X4422Y4484D02*
D03*
D63*
X4403Y1145D02*
D03*
X4600Y1145D02*
D03*
X4797Y1145D02*
D03*
X5500Y4747D02*
D03*
X5500Y4550D02*
D03*
X5500Y4353D02*
D03*
X5500Y3797D02*
D03*
X5500Y3600D02*
D03*
X5500Y3403D02*
D03*
X2497Y1150D02*
D03*
X2300Y1150D02*
D03*
X2103Y1150D02*
D03*
X1597Y1150D02*
D03*
X1400Y1150D02*
D03*
X1203Y1150D02*
D03*
X3897Y1150D02*
D03*
X3700Y1150D02*
D03*
X3503Y1150D02*
D03*
D64*
X1472Y4278D02*
D03*
X1372Y4278D02*
D03*
X3165Y1575D02*
D03*
X3065Y1575D02*
D03*
D65*
X1719Y4741D02*
D03*
D66*
X4613Y3406D02*
D03*
X4756Y3343D02*
D03*
X4776Y4061D02*
D03*
X4622Y4125D02*
D03*
D67*
X3425Y1845D02*
D03*
X5067Y1780D02*
D03*
X1397Y2188D02*
D03*
D68*
X3950Y2650D02*
D03*
X2800Y2650D02*
D03*
X1506Y2643D02*
D03*
X2800Y2050D02*
D03*
D69*
X900Y4746D02*
D03*
X1097Y4746D02*
D03*
X1097Y4549D02*
D03*
X900Y4549D02*
D03*
M02*
